<svg height="340" width="340" xmlns="http://www.w3.org/2000/svg">
<rect width="100%" height="100%" x="0" y="0" style="fill:white;stroke:white;stroke-width:0"/>
<g style="fill:white;stroke:black;stroke-width:1">
<rect width="225" height="225" x="60" y="60"/>
<polygon points="285,95 305,95 305,85 325,85 335,95 325,105 305,105 305,95 285,95"/>
<text x="280" y="85" dominant-baseline="hanging" text-anchor="end" font-size="20" style="fill:black;stroke:black;stroke-width:0">rd_data_o</text>
<polygon points="285,145 305,145 315,135 335,135 335,145 335,155 315,155 305,145 285,145"/>
<text x="280" y="135" dominant-baseline="hanging" text-anchor="end" font-size="20" style="fill:black;stroke:black;stroke-width:0">rs1_data_i</text>
<polygon points="285,195 305,195 315,185 335,185 335,195 335,205 315,205 305,195 285,195"/>
<text x="280" y="185" dominant-baseline="hanging" text-anchor="end" font-size="20" style="fill:black;stroke:black;stroke-width:0">rs2_data_i</text>
<polygon points="285,245 305,245 315,235 335,235 335,245 335,255 315,255 305,245 285,245"/>
<text x="280" y="235" dominant-baseline="hanging" text-anchor="end" font-size="20" style="fill:black;stroke:black;stroke-width:0">func_o</text>
<text x="170" y="300" dominant-baseline="hanging" text-anchor="middle" font-size="30" style="fill:black;stroke:black;stroke-width:0">AluGate</text>
</g>
</svg>
